<!-- icon666.com - MILLIONS OF FREE VECTOR ICONS --><svg clip-rule="evenodd" fill-rule="evenodd" stroke-linejoin="round" stroke-miterlimit="2" viewBox="0 0 32 32" xmlns="http://www.w3.org/2000/svg"><g transform="translate(-192 -96)"><g id="ICON"><path d="m213.757 102h-15.557c-1.215 0-2.2.985-2.2 2.2v17.6c0 1.215.985 2.2 2.2 2.2h17.6c1.215 0 2.2-.985 2.2-2.2v-15.557l2.001-2.001c.859-.859.859-2.252 0-3.111-.358-.358-.774-.774-1.132-1.132-.859-.859-2.252-.859-3.111 0zm-2 2h-13.557c-.11 0-.2.09-.2.2v17.6c0 .11.09.2.2.2h17.6c.11 0 .2-.09.2-.2v-13.557l-4.85 4.85c-.241.241-.536.423-.86.531l-3.974 1.325c-.359.119-.755.026-1.023-.242s-.361-.664-.242-1.023l1.325-3.974c.108-.324.29-.619.531-.86zm6.83-1.172-8.851 8.85c-.022.022-.049.039-.078.049 0 0-2.077.692-2.077.692s.692-2.077.692-2.077c.01-.029.027-.056.049-.078l8.85-8.85c.078-.079.205-.079.283-.001.358.358.774.774 1.132 1.132.078.078.078.205 0 .283z" fill="#000000" style="fill: rgb(245, 217, 110);"></path></g></g></svg>