<!-- icon666.com - MILLIONS OF FREE VECTOR ICONS --><svg version="1.1" id="Layer_1" xmlns="http://www.w3.org/2000/svg" xmlns:xlink="http://www.w3.org/1999/xlink" x="0px" y="0px" viewBox="0 0 512 512" style="enable-background:new 0 0 512 512;" xml:space="preserve"><g><g><path d="M405.332,36.109c-58.817,0-106.668,47.857-106.668,106.681c0,51.071,25.916,92.154,50.694,119.765h-29.361 c-35.289,0-63.998,28.705-63.998,63.987c0,35.297,28.709,64.013,63.998,64.013h56.895c11.762,0,21.331,9.576,21.331,21.348 c0,11.756-9.569,21.321-21.331,21.321h-214.28c25.898-28.751,50.723-69.429,50.723-119.765 c0-58.824-47.853-106.681-106.671-106.681C47.85,206.778,0,254.635,0,313.458c0,95.759,91.113,156.421,94.991,158.956 c3.546,2.317,7.609,3.476,11.674,3.476c0.277,0,0.556-0.018,0.833-0.03c0.198,0.006,0.39,0.03,0.589,0.03h268.806 c35.287,0,63.998-28.705,63.998-63.988c0-35.297-28.709-64.015-63.998-64.015h-56.895c-11.762,0-21.331-9.576-21.331-21.346 c0-11.756,9.57-21.319,21.331-21.319h83.912c0.199,0,0.391-0.024,0.589-0.03c0.277,0.011,0.556,0.03,0.833,0.03 c4.063,0,8.128-1.159,11.674-3.477c0.506-0.331,12.598-8.286,27.765-22.413C475.44,250.76,512,203.879,512,142.79 C512,83.966,464.15,36.109,405.332,36.109z M117.02,418.781c-3.772,3.514-7.296,6.554-10.374,9.082 c-21.241-17.42-63.979-59.317-63.979-114.405c0-35.297,28.709-64.014,63.998-64.014c35.291,0,64.004,28.716,64.004,64.014 C170.669,359.202,141.494,395.981,117.02,418.781z M415.687,248.112c-3.755,3.499-7.262,6.525-10.33,9.047 c-21.25-17.533-64.028-59.633-64.028-114.369c0-35.297,28.711-64.014,64.001-64.014c35.291,0,64.001,28.716,64.001,64.014 C469.333,188.536,440.16,225.314,415.687,248.112z" fill="#000000" style="fill: rgb(0, 94, 244);"></path></g></g><g><g><circle cx="405.338" cy="142.778" r="28.445" fill="#000000" style="fill: rgb(0, 94, 244);"></circle></g></g><g><g><path d="M106.668,285.001c-15.709,0-28.448,12.735-28.448,28.445s12.739,28.445,28.448,28.445 c15.706,0,28.442-12.735,28.442-28.445S122.374,285.001,106.668,285.001z" fill="#000000" style="fill: rgb(0, 94, 244);"></path></g></g></svg>